# xmcd CD database file
#
# Track frame offsets:
#	150
#	13940
#	42055
#	67757
#	93742
#	128165
#	151130
#	177197
#	196697
#	212292
#	243547
#	255415
#	284982
#	307040
#
# Disc length: 4297 seconds
#
# Revision: 0
# Processed by: cddbd v1.4PL0 Copyright (c) Steve Scherf et al.
# Submitted via: CDex 1.51
#
DISCID=bd10c70e
DTITLE=Ronald Snijders - Kasekojazz and more
DYEAR=1994
DGENRE=Jazz
TTITLE0=Kasekojazz
TTITLE1=Saramaka
TTITLE2=Blue kawina
TTITLE3=Cheguei
TTITLE4=Seven wings
TTITLE5=Galibi
TTITLE6=Sukrufinga
TTITLE7=Brazilian blue
TTITLE8=Kaya
TTITLE9=Mi gron
TTITLE10=Yaw na yaw
TTITLE11=Who are you
TTITLE12=Brazilian blue (alternate take)
TTITLE13=Kasekojazz (alternate take)
EXTD=YEAR: 1994
EXTT0=
EXTT1=
EXTT2=
EXTT3=
EXTT4=
EXTT5=
EXTT6=
EXTT7=
EXTT8=
EXTT9=
EXTT10=
EXTT11=
EXTT12=
EXTT13=
PLAYORDER=
